HIERARCHY
ROOT Hips
{
  OFFSET 0 0 0
  CHANNELS 6 Xposition Yposition Zposition Zrotation Xrotation Yrotation
  JOINT Spine
  {
    OFFSET 0 10.1816 0.1315
    CHANNELS 3 Zrotation Xrotation Yrotation
    JOINT Spine1
    {
      OFFSET 0 10.0835 -1.0008
      CHANNELS 3 Zrotation Xrotation Yrotation
      JOINT Spine2
      {
        OFFSET 0 9.1 -1.3734
        CHANNELS 3 Zrotation Xrotation Yrotation
        JOINT Neck
        {
          OFFSET 0 16.6717 -2.5162
          CHANNELS 3 Zrotation Xrotation Yrotation
          JOINT Head
          {
            OFFSET 0 9.6179 1.685
            CHANNELS 3 Zrotation Xrotation Yrotation
            End Site
            {
              OFFSET 0 17.8152 2.585
            }
          }
        }
        JOINT LeftShoulder
        {
          OFFSET 4.5704 10.946 -2.628
          CHANNELS 3 Zrotation Xrotation Yrotation
          JOINT LeftArm
          {
            OFFSET 10.5924 -0.5246 -2.2321
            CHANNELS 3 Zrotation Xrotation Yrotation
            JOINT LeftForeArm
            {
              OFFSET 27.8415 -0.0001 0
              CHANNELS 3 Zrotation Xrotation Yrotation
              JOINT LeftHand
              {
                OFFSET 28.3288 0 0
                CHANNELS 3 Zrotation Xrotation Yrotation
                End Site
                {
                  OFFSET 0 0 0
                }
              }
            }
          }
        }
        JOINT RightShoulder
        {
          OFFSET -4.57 10.9462 -2.628
          CHANNELS 3 Zrotation Xrotation Yrotation
          JOINT RightArm
          {
            OFFSET -10.5928 -0.5248 -2.2321
            CHANNELS 3 Zrotation Xrotation Yrotation
            JOINT RightForeArm
            {
              OFFSET -27.8415 0 0
              CHANNELS 3 Zrotation Xrotation Yrotation
              JOINT RightHand
              {
                OFFSET -28.3288 0 0.0001
                CHANNELS 3 Zrotation Xrotation Yrotation
                End Site
                {
                  OFFSET 0 0 0
                }
              }
            }
          }
        }
      }
    }
  }
  JOINT LeftUpLeg
  {
    OFFSET 8.2078 -6.7517 -1.5996
    CHANNELS 3 Zrotation Xrotation Yrotation
    JOINT LeftLeg
    {
      OFFSET 0 -44.3705 0.2846
      CHANNELS 3 Zrotation Xrotation Yrotation
      JOINT LeftFoot
      {
        OFFSET 0 -44.4279 -2.9822
        CHANNELS 3 Zrotation Xrotation Yrotation
        JOINT LeftToeBase
        {
          OFFSET 0 -8.7287 10.7106
          CHANNELS 3 Zrotation Xrotation Yrotation
          End Site
          {
            OFFSET 0 -0.0007 9.2781
          }
        }
      }
    }
  }
  JOINT RightUpLeg
  {
    OFFSET -8.2078 -6.7517 -1.5996
    CHANNELS 3 Zrotation Xrotation Yrotation
    JOINT RightLeg
    {
      OFFSET 0 -44.3705 0.2862
      CHANNELS 3 Zrotation Xrotation Yrotation
      JOINT RightFoot
      {
        OFFSET 0 -44.4277 -2.9838
        CHANNELS 3 Zrotation Xrotation Yrotation
        JOINT RightToeBase
        {
          OFFSET 0 -8.7287 10.7106
          CHANNELS 3 Zrotation Xrotation Yrotation
          End Site
          {
            OFFSET 0 -0.0007 9.2781
          }
        }
      }
    }
  }
}
MOTION
Frames:	15
Frame Time:	0.0333333
-3.37614 87.706 -0.352733 -3.71397 -17.7225 -45.6986 1.68308 2.79909 3.84839 0.41969 0.838464 -0.0638832 0.457575 0.852986 -0.0745709 4.86508 7.47382 11.7003 -0.916188 35.1172 15.8075 -3.12217 -1.42836 2.11658 -71.4498 -40.4581 -8.39405 -5.3615e-005 0.000304576 -118.19 -8.37947 -3.92937 0.0862695 5.3002 6.7524 15.0647 56.5846 -10.945 29.13 5.9945e-005 5.66396e-006 111.789 34.6467 -10.2371 18.8229 11.6139 -15.087 15.3948 10.3298 56.0592 -17.3992 -15.4572 -21.9525 -13.8887 4.2921e-006 -1.59404 -3.26922e-006 -31.923 -6.80458 -16.9829 -19.8256 60.089 11.0688 22.2166 -30.0534 -0.127969 -7.95607e-007 -0.0354588 8.38912e-006 
-2.65939 88.556 -1.38843 -2.59319 -15.7149 -45.985 -0.0578153 4.383 4.30163 -0.113562 1.17346 0.0386244 -0.0767521 1.18838 0.0281471 4.73504 6.51701 12.179 -3.35158 31.8985 18.8339 -2.94327 -1.77128 3.48919 -72.2563 -39.1703 -14.8692 -4.86938e-005 0.000313586 -119.102 -8.42939 -3.98916 0.0151074 2.70211 5.00839 13.0939 61.0045 -10.8465 35.2056 5.97447e-005 6.14129e-006 113.733 33.7906 -9.80733 17.7071 12.0188 -17.1187 15.3272 9.23486 54.0137 -15.0693 -15.8571 -19.8674 -13.7187 4.2921e-006 -1.59404 -3.26922e-006 -31.0319 -9.64807 -17.9522 -18.4404 59.1716 9.62932 20.7993 -28.5702 -0.657023 -7.95778e-007 -0.0342881 8.38912e-006 
-1.85444 89.1537 -2.27457 -1.62098 -13.71 -46.2935 -1.3886 6.04934 4.76141 -0.550984 1.53801 0.159041 -0.515772 1.55319 0.149532 4.49596 5.07288 12.7054 -4.95919 27.2532 20.9278 -3.42025 -1.64043 3.84752 -72.8145 -38.5216 -20.4381 -4.3507e-005 0.000322728 -120.036 -9.04198 -3.76411 -1.43661 -0.492224 3.24669 11.1728 66.181 -9.38953 40.6683 5.94207e-005 6.83095e-006 116.595 32.6165 -7.59627 17.0252 12.3979 -19.3608 15.0677 8.771 52.5833 -13.1363 -16.3146 -18.1782 -13.5706 4.2921e-006 -1.59404 -3.26922e-006 -30.366 -12.4377 -18.9781 -17.1749 58.5206 8.36606 19.605 -27.1761 -0.852658 -7.95954e-007 -0.0330905 8.38912e-006 
-1.05814 89.4968 -2.94293 -0.980142 -11.2876 -46.6367 -2.10031 7.5204 5.09529 -0.840136 1.89115 0.269022 -0.806674 1.90636 0.260834 4.13906 3.43579 13.2658 -5.85665 21.6962 22.3635 -4.95964 -0.763944 2.77058 -72.3529 -38.3222 -24.4481 -4.26715e-005 0.000324168 -120.184 -10.0738 -2.51387 -3.68145 -3.32417 1.88632 9.45465 70.4133 -6.64542 45.0777 5.90365e-005 7.54981e-006 119.656 30.8831 -4.5921 16.5591 13.4023 -21.9817 14.974 8.92396 51.9709 -11.9262 -16.7687 -17.0411 -13.4668 4.2921e-006 -1.59404 -3.26922e-006 -29.4228 -15.1923 -19.9841 -15.6806 58.1159 7.03057 18.4987 -25.9885 -0.955445 -7.96132e-007 -0.0318745 8.38912e-006 
-0.320835 89.5447 -3.27276 -0.482565 -8.53985 -46.745 -2.3768 8.65743 5.25097 -1.01141 2.19658 0.339791 -0.979252 2.21171 0.332639 3.72947 1.80337 13.7915 -6.46447 15.9441 23.4028 -7.32995 0.535287 1.60224 -71.5452 -36.1535 -27.6081 -4.9532e-005 0.000312075 -118.948 -11.7223 0.13275 -5.31207 -5.06685 1.09475 7.97664 72.6588 -2.81009 48.1632 5.87289e-005 8.06608e-006 121.912 28.8485 -2.07973 16.0595 14.93 -25.0868 15.053 9.36501 52.3404 -11.3645 -17.0609 -16.5404 -13.4608 4.2921e-006 -1.59404 -3.26922e-006 -28.4544 -17.806 -21.0386 -13.9471 58.0133 5.91806 17.4604 -25.2166 -1.37507 -7.96311e-007 -0.0306485 8.38912e-006 
0.362431 89.4303 -3.25584 0.306228 -6.24478 -46.4821 -2.69157 9.53593 5.36466 -1.15098 2.43623 0.379714 -1.11959 2.45123 0.372904 3.28549 0.306827 14.2115 -7.16766 10.7122 24.0145 -9.7428 1.54769 1.79012 -71.8491 -30.3818 -30.9797 -6.31226e-005 0.00028613 -116.345 -13.5833 3.75122 -5.26594 -5.63245 0.814974 7.1126 73.2783 1.48846 49.5867 5.86816e-005 8.14155e-006 122.247 26.8918 -0.375744 15.7657 15.8304 -28.1958 14.9069 9.67593 53.1272 -10.859 -17.1147 -16.3999 -13.5091 4.2921e-006 -1.59404 -3.26922e-006 -28.3428 -19.998 -22.2394 -12.4031 58.049 4.82174 16.9408 -24.6027 -1.49173 -7.96491e-007 -0.0294211 8.38912e-006 
0.952785 89.2346 -2.955 1.27476 -4.83356 -46.2282 -3.25454 10.3009 5.66339 -1.30709 2.61875 0.446429 -1.27687 2.6336 0.439599 2.7468 -0.927139 14.4872 -8.12073 6.55766 24.0377 -11.3836 1.84267 3.31491 -73.3416 -22.5368 -34.3376 -7.90791e-005 0.00025135 -112.944 -14.7183 7.42291 -4.09646 -5.30644 0.94124 7.35279 73.4287 5.29842 49.2632 5.90189e-005 7.5807e-006 119.789 24.9639 0.694259 16.395 15.9187 -30.652 14.6875 9.61833 54.062 -10.2397 -16.8998 -16.5708 -13.5326 4.2921e-006 -1.59404 -3.26922e-006 -29.0694 -21.6191 -23.348 -11.6167 58.1416 4.2318 16.9801 -24.1098 -1.26042 -7.9667e-007 -0.0282009 8.38912e-006 
1.4092 88.8681 -2.38583 1.95972 -4.28119 -46.3349 -3.86195 10.9922 6.23351 -1.44972 2.76816 0.581689 -1.42187 2.78279 0.575011 2.07637 -1.7778 14.6072 -9.28577 3.8764 23.4406 -11.9669 1.534 5.26547 -74.8254 -15.6626 -37.053 -9.29258e-005 0.000215737 -109.548 -14.8892 10.1912 -3.25923 -4.49252 1.35809 8.68549 73.8122 7.81127 47.7546 5.96504e-005 6.35147e-006 114.598 22.6883 0.802337 18.2037 15.9172 -32.1411 14.8613 9.08374 55.5125 -9.62328 -16.3789 -17.2911 -13.6114 4.2921e-006 -1.59404 -3.26922e-006 -30.0552 -22.6365 -23.9796 -11.8392 58.4706 4.58511 17.4893 -23.9048 -0.863612 -7.96758e-007 -0.027596 8.38912e-006 
1.71759 88.5889 -1.64214 2.37279 -4.35111 -46.4657 -4.2955 11.5114 6.93506 -1.52336 2.88908 0.75409 -1.49862 2.9034 0.74762 1.38287 -2.13987 14.5659 -10.4668 2.82815 22.3767 -11.7376 1.00378 6.79106 -75.315 -11.9574 -39.1953 -0.000101917 0.00018851 -107 -14.9028 11.4967 -3.38663 -3.59914 1.90524 10.5596 74.1126 8.74487 45.9633 6.02725e-005 4.76372e-006 108.192 20.1595 -0.564123 20.4735 15.7116 -32.6545 15.1814 8.19234 56.7601 -9.02358 -15.6206 -18.142 -13.6952 4.2921e-006 -1.59404 -3.26922e-006 -30.962 -22.8382 -24.1846 -12.5738 58.4966 5.17741 18.3348 -23.7082 -0.366303 -7.96758e-007 -0.027596 8.38912e-006 
1.86973 88.6175 -0.798106 2.84038 -4.74517 -46.1511 -4.52533 11.7118 7.5975 -1.50686 2.95315 0.909623 -1.48488 2.96721 0.90297 0.891104 -2.00126 14.3776 -11.2712 3.13072 21.1201 -10.9668 0.56215 7.26301 -74.6259 -12.4057 -40.8125 -0.000105364 0.000176843 -105.919 -15.5249 11.3332 -4.07327 -2.90735 2.40796 12.3292 73.6197 8.45457 44.4695 6.06372e-005 3.46198e-006 103.114 18.1232 -2.98739 22.0173 14.7918 -32.5552 15.0751 7.27096 57.1306 -8.45113 -14.8007 -18.6986 -13.7202 4.2921e-006 -1.59404 -3.26922e-006 -31.8234 -22.1995 -24.2488 -13.1538 57.8016 5.38886 19.2877 -23.3535 -0.0653645 -7.96758e-007 -0.027596 8.38912e-006 
1.84494 89.0751 0.00950384 3.42791 -5.26894 -45.6014 -4.56539 11.4864 8.14773 -1.41959 2.92553 1.03474 -1.39963 2.9395 1.02757 0.770789 -1.54467 14.1121 -11.3249 4.11097 20.0185 -9.74752 0.240995 6.66953 -72.9855 -16.5317 -42.2094 -0.000104419 0.000180123 -106.222 -16.7596 10.0805 -4.79529 -2.47233 2.77745 13.6374 72.3254 7.60793 43.7265 6.07399e-005 2.98723e-006 101.29 16.8712 -5.06787 22.1029 13.3109 -31.8358 14.6001 6.40861 56.2573 -7.80285 -14.0959 -18.7184 -13.664 4.2921e-006 -1.59404 -3.26922e-006 -32.469 -20.9435 -24.2314 -13.3104 56.1953 5.12978 20.0264 -22.7351 -0.0922517 -7.96758e-007 -0.027596 8.38912e-006 
1.7166 89.8329 0.601118 3.93625 -5.31361 -45.1819 -4.39164 10.8038 8.51116 -1.30797 2.79668 1.12922 -1.28922 2.81076 1.12146 1.00914 -1.03773 13.8861 -10.6265 5.13981 19.4403 -8.08913 -0.200649 5.88314 -70.7842 -22.4264 -43.8811 -0.000101655 0.000189364 -107.08 -18.293 8.21534 -5.30897 -2.14302 3.09106 14.678 70.662 6.48814 44.3525 6.06685e-005 3.32495e-006 102.586 16.1426 -5.88022 21.0852 12.2407 -31.0109 14.2185 5.83543 54.5085 -7.27293 -13.6628 -18.2319 -13.5525 4.2921e-006 -1.59404 -3.26922e-006 -32.4567 -19.7496 -24.1998 -12.7866 54.0031 4.25294 20.2619 -21.8574 -0.334619 -7.96758e-007 -0.027596 8.38912e-006 
1.54493 90.6961 0.954136 4.21567 -4.70476 -45.0432 -4.09047 9.74837 8.62965 -1.22534 2.58892 1.18102 -1.2068 2.60319 1.17292 1.43375 -0.576334 13.782 -9.52004 6.03162 19.5577 -6.15744 -0.909054 5.71031 -68.5242 -28.2287 -45.9809 -0.000100084 0.000194403 -107.549 -19.8659 6.10272 -5.6955 -1.9176 3.40991 15.9434 69.0953 4.83042 46.5985 6.04945e-005 4.02591e-006 105.298 16.1197 -5.91408 20.0345 12.0668 -30.3852 14.2368 5.53765 52.4409 -6.98386 -13.4531 -17.4653 -13.4286 4.2921e-006 -1.59404 -3.26922e-006 -31.7914 -18.9101 -24.253 -11.651 51.6358 2.85534 20.0047 -20.808 -0.500261 -7.96758e-007 -0.027596 8.38912e-006 
1.25863 91.5785 1.20014 4.45815 -4.30761 -45.2423 -3.78788 8.49987 8.60533 -1.17759 2.32866 1.20467 -1.15859 2.34312 1.1964 1.85147 -0.0324145 13.7653 -8.35691 6.99644 20.1006 -4.46892 -1.5972 5.81899 -66.1915 -33.4777 -48.3327 -0.000101419 0.000190132 -107.151 -21.0851 3.96802 -6.42968 -2.30345 3.4735 17.428 68.6179 2.68694 49.9685 6.02951e-005 4.69429e-006 107.917 17.0177 -6.04396 19.6189 11.9813 -29.3451 14.4741 5.13967 50.1262 -6.58235 -13.3476 -16.6085 -13.3033 4.2921e-006 -1.59404 -3.26922e-006 -31.3584 -18.0304 -24.5242 -10.5159 49.2923 1.35237 19.6367 -19.6287 0.036454 -7.96758e-007 -0.027596 8.38912e-006 
0.877938 92.3116 1.2906 4.60122 -3.92944 -45.5753 -3.39244 7.2318 8.57534 -1.11903 2.03236 1.23782 -1.0996 2.04701 1.22974 2.23765 0.717803 13.7176 -7.3333 8.19347 20.601 -3.41128 -1.94613 5.46498 -63.4137 -38.4063 -50.3639 -0.000105485 0.000176419 -105.88 -21.4336 2.18682 -7.85746 -3.62959 3.00509 18.5373 69.8347 0.826732 53.7025 6.01189e-005 5.2078e-006 109.956 18.2076 -6.34632 19.664 12.1196 -28.3394 14.8165 4.93663 48.0296 -6.35514 -13.4332 -15.824 -13.1926 4.2921e-006 -1.59404 -3.26922e-006 -30.9116 -17.3497 -24.815 -9.46938 47.4134 0.0336363 19.1602 -18.7014 0.723354 -7.96758e-007 -0.027596 8.38912e-006 
